HIERARCHY
ROOT Bip001_Pelvis
{
  OFFSET 7.937 94.8971 -8.5489
  CHANNELS 6 Xposition Yposition Zposition Zrotation Xrotation Yrotation
  JOINT Bip001_Spine
  {
    OFFSET 1.44608e-005 10.4157 -0.0118244
    CHANNELS 3 Zrotation Xrotation Yrotation
    JOINT Bip001_L_Thigh
    {
      OFFSET 11.2582 -10.4157 0.0118432
      CHANNELS 3 Zrotation Xrotation Yrotation
      JOINT Bip001_L_Calf
      {
        OFFSET -0.720717 -44.8687 0.366937
        CHANNELS 3 Zrotation Xrotation Yrotation
        JOINT Bip001_L_Foot
        {
          OFFSET -0.664439 -41.3745 -3.62995
          CHANNELS 3 Zrotation Xrotation Yrotation
          JOINT Bip001_L_Toe0
          {
            OFFSET 0.0541047 -10.4146 13.4033
            CHANNELS 3 Zrotation Xrotation Yrotation
            End Site
            {
              OFFSET -1.04503e-005 0 7.70137
            }
          }
        }
      }
    }
    JOINT Bip001_R_Thigh
    {
      OFFSET -11.2582 -10.4156 0.0118122
      CHANNELS 3 Zrotation Xrotation Yrotation
      JOINT Bip001_R_Calf
      {
        OFFSET 0.72059 -44.8687 0.36676
        CHANNELS 3 Zrotation Xrotation Yrotation
        JOINT Bip001_R_Foot
        {
          OFFSET 0.664321 -41.3745 -3.62979
          CHANNELS 3 Zrotation Xrotation Yrotation
          JOINT Bip001_R_Toe0
          {
            OFFSET -0.05417 -10.4146 13.4033
            CHANNELS 3 Zrotation Xrotation Yrotation
            End Site
            {
              OFFSET -1.04873e-005 0 7.70137
            }
          }
        }
      }
    }
    JOINT Bip001_Spine1
    {
      OFFSET 1.90638e-005 14.8539 1.10727
      CHANNELS 3 Zrotation Xrotation Yrotation
      JOINT Bip001_Spine2
      {
        OFFSET 2.28934e-005 14.7848 -1.7233
        CHANNELS 3 Zrotation Xrotation Yrotation
        JOINT Bip001_Neck
        {
          OFFSET 2.24514e-005 15.6905 -0.498826
          CHANNELS 3 Zrotation Xrotation Yrotation
          JOINT Bip001_L_Clavicle
          {
            OFFSET 6.17691 -0.000591152 0.00852867
            CHANNELS 3 Zrotation Xrotation Yrotation
            JOINT Bip001_L_UpperArm
            {
              OFFSET 11.773 -0.0611878 0.00197697
              CHANNELS 3 Zrotation Xrotation Yrotation
              JOINT Bip001_L_Forearm
              {
                OFFSET 26.4515 0.0817568 -2.19579
                CHANNELS 3 Zrotation Xrotation Yrotation
                JOINT Bip001_L_Hand
                {
                  OFFSET 32.8677 0.156744 1.67112
                  CHANNELS 3 Zrotation Xrotation Yrotation
                  JOINT Bip001_L_Finger0
                  {
                    OFFSET 6.16268 -2.25226 6.01674
                    CHANNELS 3 Zrotation Xrotation Yrotation
                    End Site
                    {
                      OFFSET 4.30499 -1.46662 0.618148
                    }
                  }
                  JOINT Bip001_L_Finger1
                  {
                    OFFSET 11.2957 -0.718374 -0.201963
                    CHANNELS 3 Zrotation Xrotation Yrotation
                    End Site
                    {
                      OFFSET 6.31952 -0.405163 -0.0802303
                    }
                  }
                }
              }
            }
          }
          JOINT Bip001_R_Clavicle
          {
            OFFSET -6.17691 -0.000574027 0.00851165
            CHANNELS 3 Zrotation Xrotation Yrotation
            JOINT Bip001_R_UpperArm
            {
              OFFSET -11.773 -0.0611516 0.00194365
              CHANNELS 3 Zrotation Xrotation Yrotation
              JOINT Bip001_R_Forearm
              {
                OFFSET -26.4514 0.0822334 -2.19736
                CHANNELS 3 Zrotation Xrotation Yrotation
                JOINT Bip001_R_Hand
                {
                  OFFSET -32.8677 0.156817 1.67144
                  CHANNELS 3 Zrotation Xrotation Yrotation
                  JOINT Bip001_R_Finger0
                  {
                    OFFSET -6.1627 -2.25224 6.0167
                    CHANNELS 3 Zrotation Xrotation Yrotation
                    End Site
                    {
                      OFFSET -4.30499 -1.46662 0.618134
                    }
                  }
                  JOINT Bip001_R_Finger1
                  {
                    OFFSET -11.2958 -0.718344 -0.201994
                    CHANNELS 3 Zrotation Xrotation Yrotation
                    End Site
                    {
                      OFFSET -6.31952 -0.405146 -0.0802475
                    }
                  }
                }
              }
            }
          }
          JOINT Bip001_Head
          {
            OFFSET 1.11782e-005 11.4912 2.09908
            CHANNELS 3 Zrotation Xrotation Yrotation
            End Site
            {
              OFFSET 2.95144e-005 21.2823 -2.83069e-005
            }
          }
        }
      }
    }
  }
}
MOTION
Frames:	12
Frame Time:	0.04
6.92632 95.2047 -8.22556 0.462297 -3.40931 2.05516 0.0968609 1.08308 -0.311759 5.71138 -6.25196 10.9183 -0.542813 16.2424 -2.42643 -3.68259 -6.45169 -1.21694 0.716341 -9.91403 -0.14947 -7.73908 -4.96238 -1.48493 -0.479299 17.9355 5.11197 -0.0499947 -9.74901 -11.2648 -0.498742 -11.5439 -0.111727 0.133944 2.16578 -0.624016 0.1343 2.16578 -0.625622 -2.16322 -0.702589 2.41597 -26.8752 7.37863 -13.7301 -51.957 40.6097 8.65866 14.3607 2.06139 -26.8697 -3.48105 -0.237861 -2.77436 6.36111e-015 6.36111e-015 -1.59028e-015 6.36111e-015 6.36111e-015 -3.18055e-015 32.0289 4.54785 8.23123 58.3822 18.3807 -22.3252 7.1395 -27.6093 52.4417 -0.754595 0.547908 -14.7351 5.96354e-016 -7.95139e-016 -0 -3.97569e-016 0 4.77083e-015 -1.60946 -0.248853 2.09574 
7.13307 95.1251 -8.20827 0.527749 -3.2239 2.61453 0.0449433 1.03658 -0.329592 5.46828 -6.77379 9.54612 -0.635732 16.7688 -2.30123 -3.50257 -6.76098 -0.575701 0.716618 -9.88105 -0.0381878 -7.96715 -5.09131 -1.22983 -0.145063 18.2633 4.90731 -0.120272 -10.0267 -11.8152 -0.490244 -11.5199 -0.209633 0.033926 2.07305 -0.660466 0.0339255 2.07305 -0.660467 -2.68304 -0.77325 2.96682 -26.4001 7.5791 -13.8982 -51.5046 40.6295 8.94321 14.1031 2.65946 -26.3859 -3.95822 -0.320013 -3.12545 -0 0 3.18055e-015 0 3.18056e-015 -0 31.9847 4.38162 8.14502 56.6389 13.9836 -23.3255 1.15918 -19.6159 58.7104 -3.23954 1.38424 -11.9381 -1.98785e-015 0 -0 -1.19271e-015 7.95139e-016 -3.18055e-015 -1.31704 -0.471375 2.41971 
7.428 95.0061 -8.16346 0.538572 -3.11714 3.47309 -0.00375969 1.00126 -0.309368 5.27558 -7.42259 9.09603 -0.501159 17.6716 -3.13884 -3.2238 -7.23027 -0.236768 0.730183 -9.85397 0.0465052 -8.18495 -5.08756 -1.29969 0.0878831 18.6745 4.4292 -0.0458634 -10.3863 -12.0841 -0.446315 -11.5225 -0.280846 -0.0581411 2.00268 -0.618867 -0.0581412 2.00268 -0.618866 -3.17014 -1.05843 3.23817 -25.9057 7.88491 -13.8858 -51.0655 39.8058 9.01336 14.0484 4.05822 -25.8456 -4.35158 -0.304299 -3.39072 0 0 -1.59028e-015 -0 -3.18056e-015 -0 31.8185 4.43695 7.89998 52.276 6.57598 -23.4906 -5.41452 -8.9352 67.7935 -7.71458 2.44274 -9.41484 -3.18055e-015 4.77083e-015 6.36111e-015 -5.56597e-015 4.77083e-015 1.27222e-014 -1.10613 -0.473016 2.5039 
7.7799 94.8763 -8.06193 0.430825 -3.01951 4.54569 -0.036389 0.967641 -0.227502 5.1965 -8.17122 8.50925 -0.450603 18.8026 -3.53708 -2.92861 -7.78991 -0.41474 0.735622 -9.84359 0.0791856 -8.20418 -4.89761 -1.73238 0.0183979 18.9164 4.33721 -0.0321995 -10.6754 -12.5587 -0.240179 -11.5443 -0.417299 -0.0997561 1.93548 -0.45395 -0.0997562 1.93548 -0.453948 -3.52791 -1.53304 3.25592 -25.4637 8.30884 -13.7693 -51.7293 41.42 10.3616 14.4252 2.50381 -25.9712 -4.58853 -0.317483 -3.01381 4.77083e-015 9.54166e-015 -0 6.36111e-015 9.54167e-015 -3.18055e-015 31.2418 4.6627 7.45011 45.9332 -3.21323 -23.6647 -15.4941 2.22304 80.589 -13.7915 1.69016 -5.75977 0 2.38542e-015 -0 7.95139e-016 3.97569e-015 -3.18055e-015 -1.03804 -0.247033 2.41524 
8.33361 94.7632 -7.84215 0.682811 -2.9729 5.6042 -0.137562 0.937748 -0.0942212 4.6255 -8.45743 8.30786 -0.265051 19.3385 -5.06762 -2.40289 -8.20154 0.0718929 0.778998 -9.81262 0.174858 -8.69102 -4.58012 -2.14196 0.0538039 19.2672 3.91519 0.159102 -11.1134 -12.7745 -0.054334 -11.5754 -0.488007 -0.284658 1.87571 -0.185361 -0.284658 1.87571 -0.185356 -3.98829 -1.97829 3.30776 -25.0803 8.65832 -13.4443 -51.6372 41.4576 10.7603 14.607 2.48767 -25.9712 -4.57898 -0.313524 -2.61062 -1.59028e-015 6.36111e-015 1.59028e-015 -1.59028e-015 3.18056e-015 4.77083e-015 30.4147 4.78652 6.88731 40.8569 -7.62494 -22.0734 -25.5409 3.37962 93.052 -19.1629 2.04144 -1.31733 2.98177e-016 5.90142e-015 3.18055e-015 4.96962e-016 4.52235e-015 3.18055e-015 -0.84098 -0.0295718 2.30432 
8.80671 94.6586 -7.81129 0.608563 -2.91155 7.01582 -0.181117 0.866941 0.0145319 4.38715 -9.1192 6.92574 -0.476079 20.2525 -5.26793 -1.90547 -8.56412 0.217754 0.804374 -9.81259 0.196528 -8.76481 -4.1153 -2.22154 0.106559 19.2345 2.97227 0.401304 -11.2691 -13.1501 0.125779 -11.6036 -0.552745 -0.353493 1.73384 0.0328673 -0.353493 1.73384 0.0328729 -4.11714 -2.01326 3.34489 -25.1173 8.61586 -13.1378 -51.5453 41.2846 11.1989 14.925 2.76807 -26.0002 -4.57231 -0.274169 -2.72916 4.77083e-015 0 -3.18055e-015 4.77083e-015 -3.18056e-015 -3.18055e-015 28.1674 4.45426 6.31188 36.4715 -10.3794 -17.5694 -32.0112 0.008953 102.216 -23.7743 3.56673 0.947173 4.77083e-015 -5.56597e-015 -7.95139e-016 3.18055e-015 -4.37326e-015 -0 -0.870982 -0.0570417 2.31215 
9.28904 94.4871 -7.77744 0.371118 -2.29957 8.98599 -0.273272 0.666222 0.0909991 4.15241 -10.5191 6.26073 -0.128594 21.6152 -6.43919 -1.48661 -9.07895 0.00119482 0.830069 -9.81243 0.21542 -8.77521 -3.97478 -3.34663 0.0584591 19.3594 2.63859 0.57066 -11.647 -13.607 0.30443 -11.6052 -0.685662 -0.502002 1.33202 0.186603 -0.502001 1.33203 0.186599 -3.72755 -2.3791 2.96082 -25.5527 8.76663 -12.5351 -51.4619 41.249 11.8571 14.9402 2.35217 -26.317 -4.17264 -0.212737 -2.28556 1.76556e-031 3.18055e-015 -3.18055e-015 0 3.18056e-015 -0 25.8068 4.66798 5.88642 31.3189 -14.7487 -9.4387 -34.6316 -3.32131 108.103 -24.7323 4.27029 1.19784 3.18055e-015 3.18055e-015 -0 3.18055e-015 3.18056e-015 3.18055e-015 -1.13479 0.622013 2.11748 
9.81369 94.3115 -7.62793 0.271885 -2.12382 10.8215 -0.41714 0.544315 0.305604 3.7518 -11.3394 5.6983 0.402668 22.777 -8.10299 -1.02839 -9.61596 0.0765562 0.844757 -9.80114 0.255378 -8.87701 -3.39557 -4.4217 0.109074 19.512 2.16753 0.772026 -12.1455 -13.9231 0.451198 -11.6063 -0.813412 -0.758467 1.08657 0.616277 -0.758468 1.08657 0.616282 -2.85954 -2.01297 2.58131 -26.241 8.34607 -12.5697 -51.4203 41.0828 12.4548 15.1078 2.22545 -26.5118 -4.29014 -0.268538 -2.16145 3.18055e-015 -3.18055e-015 -0 4.77083e-015 -3.18056e-015 -1.59028e-015 22.3954 4.19105 5.74024 27.9258 -19.9052 1.19245 -35.9578 -5.35491 111.018 -25.0554 4.20985 -0.603495 -3.18055e-015 6.36111e-015 3.18055e-015 -9.54166e-015 3.18056e-015 -0 -1.75291 0.407427 2.11876 
10.296 94.1668 -7.57999 0.15952 -1.59886 13.119 -0.565177 0.395622 0.483525 3.24794 -12.4904 4.0094 0.540728 23.6966 -8.05901 -0.738946 -9.84674 -0.709993 0.843231 -9.81392 0.218482 -8.96617 -3.01059 -5.40678 0.22367 19.5459 1.28731 0.963959 -12.5684 -14.3506 0.646559 -11.6072 -1.00175 -1.00909 0.786948 0.971937 -1.00909 0.786948 0.971948 -2.93071 -1.81681 2.45034 -26.1745 8.09537 -12.5034 -51.1631 41.7099 12.8164 15.5306 1.69113 -26.8296 -4.31844 -0.322935 -1.5278 -0 0 1.59028e-015 1.59028e-015 3.18056e-015 -0 18.9441 3.79067 5.86899 28.2427 -25.6145 13.4981 -36.9406 -5.7647 111.408 -24.6761 5.71369 -2.09129 3.18055e-015 3.18055e-015 -0 1.76556e-031 6.36111e-015 -1.59028e-015 -1.13215 0.107384 1.8249 
10.7476 94.0004 -7.52453 -0.00708428 -0.751719 15.9068 -0.703703 0.1715 0.675371 2.37767 -13.8876 3.61556 1.83232 24.4921 -9.91876 -0.675314 -10.0342 -1.77039 0.855708 -9.80668 0.236502 -9.02205 -2.77143 -6.52382 0.267544 19.6936 0.311172 1.22716 -13.1066 -15.0196 0.878553 -11.6082 -1.23333 -1.23257 0.335704 1.35398 -1.23257 0.335704 1.35396 -3.0901 -1.58404 2.239 -26.497 7.81907 -12.2658 -49.6353 40.6595 11.7533 15.8872 3.47656 -26.586 -4.39305 -0.18889 -1.60669 1.76556e-031 6.36111e-015 -1.59028e-015 7.06225e-031 1.27222e-014 -3.18055e-015 14.5478 3.32289 6.28169 30.5484 -29.0089 25.5394 -40.7555 -6.13167 108.719 -25.0354 6.10439 -4.43172 -3.08973e-031 -3.18055e-015 -5.56597e-015 -1.59028e-015 -6.36111e-015 -4.77083e-015 -0.900491 -0.104185 1.51604 
11.1515 93.9561 -7.44872 -0.253378 0.364628 19.2027 -0.884125 -0.0847148 0.872666 1.61253 -15.2054 1.18122 1.72066 24.6107 -10.5036 -0.278164 -9.75273 -2.29449 0.900554 -9.79611 0.316703 -8.96171 -2.28797 -7.87152 0.285295 19.1366 -1.57772 1.68656 -13.3022 -15.2268 1.09878 -11.6251 -1.31332 -1.54895 -0.181259 1.74601 -1.54895 -0.181261 1.74599 -2.88161 -1.64642 1.77191 -27.1289 7.68902 -11.6861 -48.337 39.8961 11.0986 16.5367 4.86114 -26.9397 -4.32875 -0.0327092 -1.6938 6.36111e-015 -9.54166e-015 1.59028e-015 4.77083e-015 -1.27222e-014 -0 10.1246 3.30554 7.68233 32.7379 -31.3095 36.4365 -44.332 -4.81273 104.454 -23.3594 5.91299 -6.71012 -3.20307e-015 0 -7.7922e-015 -2.1579e-015 0 -3.86854e-015 -0.796715 0.244344 1.09798 
11.4596 94.0253 -7.36497 -0.489768 1.73381 22.6426 -1.07937 -0.377686 1.19464 0.73699 -16.2813 0.0217208 1.95331 23.8747 -12.22 0.0304334 -8.98732 -3.22066 0.95193 -9.82212 0.303973 -8.93981 -1.70122 -8.94433 0.497388 18.0631 -3.40608 1.9383 -13.267 -16.0665 1.27352 -11.6098 -1.4561 -1.89626 -0.775183 2.38654 -1.89625 -0.775181 2.38656 -2.68246 -1.72393 1.33493 -27.1394 7.42329 -10.9881 -48.2255 40.1387 10.3166 16.9478 4.8593 -27.1231 -3.77555 0.0864339 -1.71905 3.18055e-015 0 3.18055e-015 -0 0 3.18055e-015 5.15703 3.10841 9.12262 33.8927 -31.9177 45.777 -48.4452 -1.24876 97.6247 -24.0862 5.59154 -6.99508 -1.32417e-031 -9.54166e-015 -7.95139e-016 -1.59028e-015 -9.54167e-015 -2.38542e-015 -1.02828 0.556905 0.783455 
